<?xml version="1.0" encoding="UTF-8" standalone="no"?><svg xmlns="http://www.w3.org/2000/svg" xmlns:xlink="http://www.w3.org/1999/xlink" fill="#000000" height="245.3" preserveAspectRatio="xMidYMid meet" version="1" viewBox="-0.0 -0.5 383.6 245.3" width="383.6" zoomAndPan="magnify"><g data-name="Layer 2"><g data-name="Layer 2"><g id="change1_1"><rect fill="#000000" height="288.395" rx="8.596" transform="rotate(90 188.945 122.5)" width="168.893" x="104.498" y="-21.697"/></g><g id="change2_1"><path d="M348.81647,85.44836h-.00006c-.226,0-.44886.01288-.67383.01722V46.64935a23.62248,23.62248,0,0,0-23.5957-23.59576H53.34314a23.62248,23.62248,0,0,0-23.5957,23.59576V85.8172a34.39291,34.39291,0,0,0-9.21595,2.70642V39.51129A27.93649,27.93649,0,0,1,48.4364,11.60651H81.605a9.10641,9.10641,0,1,0-.00006-5H48.4364A32.9421,32.9421,0,0,0,15.53149,39.51129V91.296A34.79825,34.79825,0,0,0,0,120.209v.00007a34.8849,34.8849,0,0,0,29.74744,34.39184v43.75037A23.62248,23.62248,0,0,0,53.34314,221.947H324.54688a23.62248,23.62248,0,0,0,23.5957-23.59576V154.95251c.225.00434.44787.01722.67383.01722h.00006a34.51742,34.51742,0,0,0,8.60919-1.08728v50.832a27.93644,27.93644,0,0,1-27.90485,27.90478H296.35223a9.10632,9.10632,0,1,0,0,5h33.16858a32.94205,32.94205,0,0,0,32.90485-32.90478V152.1759a34.88135,34.88135,0,0,0,21.15149-31.96685V120.209A34.86287,34.86287,0,0,0,348.81647,85.44836Zm-5.67389,112.9029a18.61679,18.61679,0,0,1-18.5957,18.59576H53.34314a18.61679,18.61679,0,0,1-18.5957-18.59576v-43.3819l.01318.00037h.00006a34.86287,34.86287,0,0,0,34.76068-34.76068V120.209A34.86286,34.86286,0,0,0,34.76068,85.44836h-.00006l-.01318.00037V46.64935a18.61679,18.61679,0,0,1,18.5957-18.59576H324.54688a18.61679,18.61679,0,0,1,18.5957,18.59576V85.92242A34.88616,34.88616,0,0,0,314.05579,120.209v.00007a34.88622,34.88622,0,0,0,29.08679,34.28662Z" fill="#e60000"/></g></g></g></svg>