<?xml version="1.0" encoding="UTF-8" standalone="no"?><svg xmlns="http://www.w3.org/2000/svg" xmlns:xlink="http://www.w3.org/1999/xlink" fill="#000000" height="100" preserveAspectRatio="xMidYMid meet" version="1" viewBox="0.0 0.0 100.0 100.0" width="100" zoomAndPan="magnify"><g fill="#e60000" id="change1_1"><path d="M 50 2.257812 C 23.671875 2.257812 2.257812 23.671875 2.257812 50 C 2.257812 76.328125 23.671875 97.742188 50 97.742188 C 76.328125 97.742188 97.742188 76.328125 97.742188 50 C 97.742188 23.671875 76.328125 2.257812 50 2.257812 Z M 50 100 C 22.429688 100 0 77.570312 0 50 C 0 22.429688 22.429688 0 50 0 C 77.570312 0 100 22.429688 100 50 C 100 77.570312 77.570312 100 50 100" fill="inherit"/><path d="M 85.316406 31.855469 C 84.917969 31.855469 84.53125 31.640625 84.328125 31.269531 C 77.457031 18.707031 64.300781 10.902344 50 10.902344 C 43.746094 10.902344 37.769531 12.335938 32.238281 15.15625 C 31.6875 15.441406 31.007812 15.21875 30.722656 14.667969 C 30.441406 14.113281 30.660156 13.433594 31.214844 13.148438 C 37.066406 10.160156 43.386719 8.648438 50 8.648438 C 65.128906 8.648438 79.039062 16.898438 86.304688 30.183594 C 86.605469 30.730469 86.402344 31.417969 85.855469 31.714844 C 85.683594 31.808594 85.5 31.855469 85.316406 31.855469" fill="inherit"/><path d="M 35.460938 88.648438 C 35.328125 88.648438 35.1875 88.621094 35.054688 88.570312 C 19.257812 82.445312 8.644531 66.945312 8.644531 50 C 8.644531 45.300781 9.429688 40.691406 10.96875 36.296875 C 11.175781 35.710938 11.820312 35.402344 12.410156 35.605469 C 12.996094 35.816406 13.304688 36.457031 13.097656 37.046875 C 11.640625 41.199219 10.902344 45.554688 10.902344 50 C 10.902344 66.019531 20.933594 80.675781 35.871094 86.46875 C 36.449219 86.691406 36.738281 87.34375 36.515625 87.925781 C 36.339844 88.371094 35.914062 88.648438 35.460938 88.648438" fill="inherit"/><path d="M 50 91.355469 C 49.378906 91.355469 48.871094 90.847656 48.871094 90.226562 C 48.871094 89.601562 49.378906 89.097656 50 89.097656 C 54.875 89.097656 59.628906 88.210938 64.132812 86.46875 C 79.066406 80.675781 89.097656 66.023438 89.097656 50 C 89.097656 49.378906 89.601562 48.871094 90.226562 48.871094 C 90.847656 48.871094 91.351562 49.378906 91.351562 50 C 91.351562 66.945312 80.742188 82.445312 64.945312 88.570312 C 60.183594 90.417969 55.152344 91.355469 50 91.355469" fill="inherit"/><path d="M 29.347656 29.996094 L 54.152344 78.730469 L 77.824219 46.996094 L 67.546875 37.917969 Z M 53.972656 81.988281 C 53.941406 81.988281 53.90625 81.988281 53.875 81.984375 C 53.488281 81.953125 53.144531 81.71875 52.964844 81.371094 L 26.273438 28.929688 C 26.078125 28.542969 26.121094 28.078125 26.382812 27.730469 C 26.644531 27.386719 27.082031 27.21875 27.507812 27.3125 L 68.296875 35.773438 C 68.488281 35.8125 68.667969 35.902344 68.816406 36.03125 L 80.09375 45.992188 C 80.535156 46.382812 80.601562 47.042969 80.25 47.511719 L 54.875 81.535156 C 54.660156 81.824219 54.324219 81.988281 53.972656 81.988281" fill="inherit"/><path d="M 53.3125 54.542969 C 53.023438 54.542969 52.742188 54.433594 52.53125 54.230469 L 35.09375 37.484375 C 34.644531 37.054688 34.632812 36.339844 35.0625 35.890625 C 35.492188 35.441406 36.207031 35.425781 36.65625 35.859375 L 53.25 51.792969 L 67.226562 36.125 C 67.640625 35.660156 68.355469 35.617188 68.820312 36.035156 C 69.285156 36.449219 69.324219 37.160156 68.910156 37.625 L 54.15625 54.167969 C 53.953125 54.398438 53.664062 54.53125 53.355469 54.542969 C 53.34375 54.542969 53.328125 54.542969 53.3125 54.542969" fill="inherit"/><path d="M 53.71875 71.554688 C 53.109375 71.554688 52.605469 71.066406 52.59375 70.453125 L 52.183594 53.445312 C 52.171875 52.917969 52.527344 52.453125 53.035156 52.324219 L 70.027344 48.03125 C 70.632812 47.875 71.242188 48.242188 71.394531 48.847656 C 71.546875 49.453125 71.179688 50.066406 70.578125 50.21875 L 54.464844 54.289062 L 54.847656 70.402344 C 54.863281 71.023438 54.371094 71.539062 53.746094 71.554688 C 53.738281 71.554688 53.730469 71.554688 53.71875 71.554688" fill="inherit"/></g></svg>