<?xml version="1.0" encoding="UTF-8" standalone="no"?><svg xmlns="http://www.w3.org/2000/svg" xmlns:xlink="http://www.w3.org/1999/xlink" fill="#fa00ff" height="773" preserveAspectRatio="xMidYMid meet" version="1" viewBox="127.8 113.5 770.1 773.0" width="770.1" zoomAndPan="magnify"><g><g id="change1_1"><path d="M561.553,852.405c-58.932,29.007-156.968-46.39-280.166-12.291c-4.061,1.125-8.072-1.896-8.072-6.103V678.64 c0-2.104,1.04-4.06,2.776-5.247c48.661-33.604,103.6-47.266,165.925-38.769c59.241,9.513,44.46,15.89,138.982,26.759 c43.037,4.953,83.69,9.625,96.152,30.648c3.792,6.384,4.648,14.138,2.348,21.256c-15.829,49.15-173.705-16.915-260.158,30.795 c-4.391,2.434-5.993,7.962-3.559,12.365c2.392,4.36,7.891,5.998,12.352,3.571c84.803-46.814,245.846,29.74,268.694-41.142 c3.327-10.347,2.74-21.464-1.541-31.272c31.576-23.625,144.704-103.903,172.86-76.181 C897.819,640.788,762.934,759.501,561.553,852.405z"/><path d="M255.214,664.686v188.55c0,18.382-14.908,33.278-33.29,33.278h-60.881c-18.382,0-33.278-14.896-33.278-33.278v-188.55 c0-18.37,14.896-33.278,33.278-33.278h60.893c16.009,0,29.389,11.325,32.556,26.392 C254.97,660.026,255.214,662.325,255.214,664.686z"/></g><g id="change1_2"><path d="M326.502,241.608c-37.455,9.868-48.031,49.336-39.121,83.21c9.323,35.418,38.649,62.736,75.025,53.196 C433.557,359.286,382.9,226.743,326.502,241.608z"/><path d="M477.609,276.357c18.199-15.938,24.849-41.233,17.358-65.983c-10.288-34.296-19.097-73.161-50.375-73.161 c-28.512,0-50.853,33.61-50.853,76.51C393.74,289.457,445.286,304.743,477.609,276.357z"/><path d="M565.967,266.474c29.149,0,60.172-34.192,50.589-78.904c-5.544-25.888-15.84-74.085-50.589-74.085 C498.401,113.486,498.641,266.474,565.967,266.474z"/><path d="M621.671,410.618c-35.112-23.248-52.586-45.21-65.357-61.231c-13.258-16.665-27.085-33.921-49.929-32.951 c-22.242,1.237-33.082,14.949-46.81,32.307c-12.754,16.137-30.228,38.247-65.95,61.908c-18.513,12.391-28.429,36.679-26.516,65.01 c1.881,28.116,14.883,51.381,33.924,60.704c14.128,6.95,32.564,6.856,53.724-7.392c36.003-24.123,69.647-24.123,105.864,0.017 c23.958,16.104,42.422,12.903,53.708,7.392C654.463,516.679,662.231,437.79,621.671,410.618z"/><path d="M681.351,216.033c-37.523,0-59.02,33.479-59.02,70.537c0,86.6,108.669,99.439,108.669,6.337 C731,259.251,714.53,216.033,681.351,216.033z"/></g></g></svg>