<?xml version="1.0" encoding="UTF-8" standalone="no"?><svg xmlns="http://www.w3.org/2000/svg" xmlns:xlink="http://www.w3.org/1999/xlink" fill="#000000" height="151.3" preserveAspectRatio="xMidYMid meet" version="1" viewBox="0.8 0.8 158.4 151.3" width="158.4" zoomAndPan="magnify"><g><g id="change1_1"><path d="M159.19,64.86c-0.197-8.257-1.952-14.82-5.526-20.655c-4.365-7.128-10.161-10.743-17.225-10.743 c-2.021,0-4.084,0.32-6.25,0.954c-0.865-9.453-4.193-17.619-10.129-24.862c-4.662-5.669-10.829-8.791-17.366-8.791 c-6.531,0-12.551,3.104-16.95,8.733c-1.583,2.025-2.985,4.078-4.244,6.153c-1.282-2.155-2.703-4.18-4.271-6.016 c-6.227-7.292-12.83-8.822-17.272-8.822c-6.456,0-12.556,3.254-17.173,9.16c-5.971,7.632-9.362,16.026-10.104,24.644 c-2.433-0.875-4.941-1.342-7.45-1.342c-8.659,0-16.292,5.198-20.413,13.896C2.386,52.287,1.077,58.06,0.813,64.817l-0.014,0.396 l0.011,0.396c0.258,9.081,2.129,16.27,5.882,22.611c3.266,5.533,7.949,9.778,13.232,12.256c-0.979,1.872-1.761,3.899-2.278,6.113 c-2.788,12.019,2.027,21.888,5.89,28.262c6.96,11.499,16.201,17.089,28.25,17.089c3.138,0,6.418-0.381,10.023-1.165 c12.601-2.737,23.334-2.737,34.161-0.019c3.626,0.911,6.982,1.353,10.262,1.353c6.136,0,11.711-1.589,16.569-4.72 c12.834-8.268,16.518-20.509,18.294-30.256c1.041-5.73,0.276-11.053-2.056-15.639c3.597-1.638,6.881-4.15,9.654-7.459 c6.304-7.535,9.73-16.735,10.476-28.128l0.033-0.523L159.19,64.86z M134.454,58.159c0.727,1.789,1.112,3.953,1.215,6.74 c-0.468,6.055-2.065,10.529-5.004,14.042c-0.783,0.935-1.469,1.267-1.817,1.267c-0.512,0-1.396-0.659-2.127-2.107 c-1.25-2.473-1.116-6.112,0.366-9.984C128.819,63.585,131.857,59.975,134.454,58.159z M102.911,25.811 c2.625,3.696,3.871,7.754,3.989,12.901c-0.378,5.67-2.086,7.799-3.717,9.129c-0.844,0.688-1.684,1.052-2.432,1.052 c-1.676,0-2.271-1.885-2.449-2.699C96.736,39.07,98.201,32.544,102.911,25.811z M60.189,25.965 c3.132,4.275,5.118,10.637,5.132,16.555c-0.002,0.329-0.081,3.282-2.168,5.584c-0.546,0.604-1.142,0.885-1.876,0.885 c-1.228,0-2.847-0.791-3.709-3.014C54.817,38.887,55.643,32.486,60.189,25.965z M25.928,57.536 c8.375,6.173,8.998,12.472,8.577,17.315c-0.201,2.322-1.71,4.057-3.966,4.562c-0.561-0.089-2.3-0.943-3.606-3.155 c-1.625-2.746-2.434-6.125-2.607-10.915C24.481,62.16,25.005,59.602,25.928,57.536z M117.962,112.924 c-1.447,7.94-3.587,11.924-7.898,14.701c-0.647,0.417-1.748,0.972-3.832,0.972c-1.305,0-2.831-0.216-4.536-0.645 c-7.203-1.809-14.647-2.726-22.125-2.726c-7.34,0-14.781,0.841-22.753,2.572c-1.921,0.417-3.614,0.628-5.033,0.628 c-2.725,0-4.904-0.413-8.138-5.756c-3.566-5.884-3.567-8.746-3.102-10.752c0.038-0.159,0.074-0.276,0.102-0.359 c11.007-5.216,19.414-13.369,25.695-24.92c1.799-3.306,4.561-6.367,12.516-6.367c0.278,0,0.557,0.004,0.842,0.012l0.333,0.009 l0.333-0.01c0.148-0.004,0.296-0.006,0.442-0.006c3.423,0,5.524,1.125,7.259,3.886c2.453,3.899,5.81,9,10.038,13.87 c4.711,5.432,10.737,9.755,17.907,12.85c1.31,0.566,1.855,1.047,2.023,1.22C118.042,112.23,118.041,112.494,117.962,112.924z" fill="#f7ba21"/></g><g clip-rule="evenodd" fill="#ffffff" fill-rule="evenodd" id="change2_1"><path d="M80.011,68.532c7.79-0.235,13.978,2.954,18.009,9.372 c2.703,4.299,5.561,8.502,8.966,12.424c3.673,4.234,8.277,7.426,13.684,9.759c7.178,3.097,10.064,8.309,8.859,14.945 c-1.574,8.634-4.414,16.883-13.094,22.475c-5.494,3.542-11.814,3.301-17.6,1.848c-13.284-3.334-26.189-2.961-39.519-0.068 c-12.409,2.697-19.746-0.649-25.722-10.523c-3.667-6.053-6.137-12.44-4.495-19.518c0.839-3.593,2.784-6.549,6.476-8.291 c9.575-4.527,15.86-11.51,20.442-19.935C60.66,72.484,68.46,68.225,80.011,68.532z"/><path d="M118.662,38.966c-0.347,6.343-2.062,13.1-8.048,17.984 c-9.076,7.406-21.287,3.198-23.794-8.233c-2.637-11.998,0.859-22.61,8.186-31.978c4.563-5.84,11.221-5.499,15.975,0.281 C115.961,23.1,118.558,30.088,118.662,38.966z"/><path d="M77.077,42.594c-0.022,3.583-1.195,8.973-5.201,13.392 c-7.474,8.272-20.947,5.391-25.269-5.757c-4.621-11.912-2.308-23.115,5.437-33.014c4.953-6.336,11.015-6.073,16.245,0.052 C73.425,23.284,77.055,32.849,77.077,42.594z"/><path d="M12.561,65.274c0.166-4.265,0.866-8.829,2.876-13.063 c3.346-7.061,10.017-9.343,16.372-4.923c9.814,6.815,15.488,16.154,14.409,28.577c-0.667,7.692-6.182,13.645-13.503,15.104 c-5.671,1.137-12.215-2.486-15.898-8.725C13.784,77.12,12.739,71.512,12.561,65.274z"/><path d="M147.437,65.14c-0.509,7.781-2.577,15.155-7.761,21.351 c-7.123,8.501-18.443,6.813-23.448-3.088c-6.878-13.607,4.188-32.686,15.75-37.192c5.42-2.115,8.577-0.901,11.66,4.133 C146.392,54.841,147.311,59.815,147.437,65.14z"/></g></g></svg>