<?xml version="1.0" encoding="UTF-8"?><svg xmlns="http://www.w3.org/2000/svg" xmlns:xlink="http://www.w3.org/1999/xlink" height="248.6" preserveAspectRatio="xMidYMid meet" version="1.0" viewBox="257.6 537.0 198.9 248.6" width="198.9" zoomAndPan="magnify"><g fill="#24a5f3"><g id="change1_5"><path d="M456.42557,537.07007L257.88406,689.58075L359.53513,711.018L423.0526,596.6477L427.31403,587.97784Q427.52203,589.0986,428.06763,587.61774L368.08832,715.73175L436.85925,785.36584L456.42557,537.07007 Z"/></g><g id="change1_4"><path d="M451.46957,540.5175L343.93442,623.12177L343.93442,623.12274L451.46964,540.5175 Z"/></g><g id="change1_3"><path d="M456.2512,541.88763L437.06323,785.3819L437.06332,785.3829L456.2512,541.88763 Z"/></g><g id="change1_1"><path d="M451.64337,540.53894L451.61053,540.54156L257.68536,689.51514L359.43112,711.2061L424.24966,594.07635L451.82507,540.8376Q451.94122,540.65967,451.64337,540.53894 Z"/></g><g id="change1_2"><path d="M456.04727,541.66693L455.99228,541.67456L387.80432,673.37854L367.9966,715.92883L436.89206,785.56885L437.0634,785.3819L456.25125,541.8877L456.04727,541.66693 Z"/></g><g id="change1_6"><path d="M456.4256,536.9896L456.39987,536.99384L257.64316,689.4301Q257.5715,689.80023,257.77756,689.8541L359.38983,711.28064L359.57587,710.94446L258.0707,689.5389L451.7626,540.7534L427.3871,587.905Q430.2724,586.8832,431.29266,589.4606L456.13672,541.70123L456.4256,536.9896 Z"/></g></g><defs><radialGradient cx="287.745" cy="550.54" gradientUnits="userSpaceOnUse" id="h" r="399.942" xlink:actuate="onLoad" xlink:show="other" xlink:type="simple" xmlns:xlink="http://www.w3.org/1999/xlink"><stop offset="0%" stop-color="#fff"/><stop offset="100%"/></radialGradient><radialGradient cx="266.533" cy="575.644" gradientUnits="userSpaceOnUse" id="b" r="297.844" xlink:actuate="onLoad" xlink:show="other" xlink:type="simple" xmlns:xlink="http://www.w3.org/1999/xlink"><stop offset="0%" stop-color="#185ab7"/><stop offset="64.756%" stop-color="#18ceb6"/><stop offset="100%" stop-color="#b557e0"/></radialGradient><radialGradient cx="336.538" cy="430.954" gradientUnits="userSpaceOnUse" id="d" r="212.112" xlink:actuate="onLoad" xlink:show="other" xlink:type="simple" xmlns:xlink="http://www.w3.org/1999/xlink"><stop offset="0%" stop-color="#d60e1d"/><stop offset="52.384%" stop-color="#137bc9"/><stop offset="100%" stop-color="#4d1313"/></radialGradient><radialGradient cx="276.932" cy="391.481" gradientUnits="userSpaceOnUse" id="e" r="645.939" xlink:actuate="onLoad" xlink:show="other" xlink:type="simple" xmlns:xlink="http://www.w3.org/1999/xlink"><stop offset="0%" stop-color="#fff"/><stop offset="100%"/></radialGradient><radialGradient cx="390.503" cy="558.06" gradientUnits="userSpaceOnUse" id="f" r="330.433" xlink:actuate="onLoad" xlink:show="other" xlink:type="simple" xmlns:xlink="http://www.w3.org/1999/xlink"><stop offset="0%" stop-color="#fff"/><stop offset="100%"/></radialGradient><radialGradient cx="312.803" cy="623.011" gradientUnits="userSpaceOnUse" id="a" r="173.633" xlink:actuate="onLoad" xlink:show="other" xlink:type="simple" xmlns:xlink="http://www.w3.org/1999/xlink"><stop offset="0%" stop-color="#185ab7"/><stop offset="57.155%" stop-color="#18ceb6"/><stop offset="100%" stop-color="#b557e0"/></radialGradient><radialGradient cx="346.007" cy="566.097" gradientUnits="userSpaceOnUse" id="g" r="496.689" xlink:actuate="onLoad" xlink:show="other" xlink:type="simple" xmlns:xlink="http://www.w3.org/1999/xlink"><stop offset="0%" stop-color="#fff"/><stop offset="100%"/></radialGradient><linearGradient gradientUnits="userSpaceOnUse" id="c" x1="295.825" x2="532.844" xlink:actuate="onLoad" xlink:show="other" xlink:type="simple" xmlns:xlink="http://www.w3.org/1999/xlink" y1="512.348" y2="734.019"><stop offset="0%" stop-color="#243bba"/><stop offset="52.384%" stop-color="#1d6c43"/><stop offset="100%" stop-color="#d14344"/></linearGradient></defs></svg>